<?xml version="1.0" encoding="UTF-8"?>
<svg version="1.1" xmlns="http://www.w3.org/2000/svg" width="500" height="500">
<path d="M0 0 C4.62 0 9.24 0 14 0 C14 14.85 14 29.7 14 45 C19.28 45 24.56 45 30 45 C29.773125 43.845 29.54625 42.69 29.3125 41.5 C28.75218181 36.68635738 29.46692441 33.14729042 32 29 C36.28169932 23.78616039 40.78358927 21.00452156 47.484375 20.08984375 C53.75274302 19.86597346 58.24254733 21.04062244 63.0625 25.125 C64.05688971 26.06752811 65.04203494 27.02047303 66 28 C66.33 25.69 66.66 23.38 67 21 C68.95803507 20.94610913 70.91648909 20.90725783 72.875 20.875 C74.51082031 20.84019531 74.51082031 20.84019531 76.1796875 20.8046875 C79 21 79 21 81 23 C81.99 22.34 82.98 21.68 84 21 C90.86970721 18.87366205 96.91034681 21.84495344 103 25 C103.70125 24.360625 104.4025 23.72125 105.125 23.0625 C108.41320951 20.70356709 109.96712761 20.07755524 114 20 C118.95788605 20.91260203 122.77949104 22.25161994 126.0625 26.1875 C127.0215625 27.5796875 127.0215625 27.5796875 128 29 C128.70125 28.236875 129.4025 27.47375 130.125 26.6875 C135.10670032 22.03069318 140.17262501 20.02421055 147 20 C154.52172509 20.55095439 159.39943362 23.02519523 165 28 C165.66 25.69 166.32 23.38 167 21 C170.96 21 174.92 21 179 21 C179 21.99 179 22.98 179 24 C179.70253906 23.51402344 180.40507812 23.02804688 181.12890625 22.52734375 C185.91495736 19.98129479 190.71156326 20.35506869 196 21 C200.60517636 23.18139933 202.76148754 25.48496638 205 30 C205.34057617 33.04614258 205.34057617 33.04614258 205.29296875 36.39453125 C205.28330078 37.59658203 205.27363281 38.79863281 205.26367188 40.03710938 C205.23853516 41.28298828 205.21339844 42.52886719 205.1875 43.8125 C205.17396484 45.07771484 205.16042969 46.34292969 205.14648438 47.64648438 C205.11118602 50.76450544 205.05738085 53.88230714 205 57 C200.71 57 196.42 57 192 57 C191.95101562 55.44667969 191.90203125 53.89335937 191.8515625 52.29296875 C191.77653303 50.25779433 191.70098528 48.22263896 191.625 46.1875 C191.57859375 44.65125977 191.57859375 44.65125977 191.53125 43.08398438 C191.49257813 42.10107422 191.45390625 41.11816406 191.4140625 40.10546875 C191.3826416 39.19949951 191.3512207 38.29353027 191.31884766 37.36010742 C191.13972081 34.73474608 191.13972081 34.73474608 189 32 C185.56206661 32.18129815 185.56206661 32.18129815 182 33 C180.04317841 35.85048188 179.71686031 38.36163201 179.5859375 41.765625 C179.52792969 43.09980469 179.52792969 43.09980469 179.46875 44.4609375 C179.4378125 45.38132812 179.406875 46.30171875 179.375 47.25 C179.31699219 48.65378906 179.31699219 48.65378906 179.2578125 50.0859375 C179.16375656 52.39030796 179.08079814 54.6951266 179 57 C174.71 57 170.42 57 166 57 C165.67 55.02 165.34 53.04 165 51 C164.18595703 51.63228516 164.18595703 51.63228516 163.35546875 52.27734375 C162.28232422 53.09912109 162.28232422 53.09912109 161.1875 53.9375 C160.47980469 54.48277344 159.77210938 55.02804687 159.04296875 55.58984375 C153.34988549 59.5194863 145.61965303 58.50284565 139 58 C134.23965944 56.65088733 130.51069065 54.39370863 128 50 C127.67 52.31 127.34 54.62 127 57 C122.71 57 118.42 57 114 57 C113.95101562 55.36289062 113.90203125 53.72578125 113.8515625 52.0390625 C113.77654361 49.901024 113.7009954 47.76300402 113.625 45.625 C113.5940625 44.54476562 113.563125 43.46453125 113.53125 42.3515625 C113.49257812 41.3203125 113.45390625 40.2890625 113.4140625 39.2265625 C113.3826416 38.27346191 113.3512207 37.32036133 113.31884766 36.33837891 C113.21444204 33.81104824 113.21444204 33.81104824 111 32 C107.90073181 32.32198966 107.90073181 32.32198966 105 33 C104.04831317 35.85506049 103.8099054 37.90937282 103.68359375 40.88671875 C103.64169922 41.82451172 103.59980469 42.76230469 103.55664062 43.72851562 C103.51732422 44.70498047 103.47800781 45.68144531 103.4375 46.6875 C103.37272461 48.16959961 103.37272461 48.16959961 103.30664062 49.68164062 C103.20058458 52.12092972 103.09979026 54.56044654 103 57 C98.71 57 94.42 57 90 57 C89.505 44.625 89.505 44.625 89 32 C86.36 32 83.72 32 81 32 C80.67 40.25 80.34 48.5 80 57 C75.71 57 71.42 57 67 57 C66.67 55.35 66.34 53.7 66 52 C65.071875 52.804375 64.14375 53.60875 63.1875 54.4375 C58.95257871 58.10776512 55.20063898 58.20889007 49.6875 58.3125 C47.74423828 58.36857422 47.74423828 58.36857422 45.76171875 58.42578125 C40.57301831 57.83848286 37.62893228 55.62893228 34 52 C33.67 53.65 33.34 55.3 33 57 C22.11 57 11.22 57 0 57 C0 38.19 0 19.38 0 0 Z M44 31 C43.67 31.99 43.34 32.98 43 34 C46.96 34 50.92 34 55 34 C53.51074581 29.88036585 53.51074581 29.88036585 50.625 29.125 C47.68170418 28.98484306 46.38506951 29.29637892 44 31 Z M140.5 34.0625 C138.54359676 37.89378967 138.86108961 39.8999226 140 44 C140.98048938 46.06402685 140.98048938 46.06402685 143 47 C146.89504791 47.49573337 149.09493717 47.58016848 152.4375 45.4375 C154.60396028 42.05782196 154.56288002 39.94016013 154 36 C152.58333333 33.41666667 152.58333333 33.41666667 150 32 C145.72534054 31.31300116 143.87959834 31.27433137 140.5 34.0625 Z M43 42 C44.64856825 46.12403473 44.64856825 46.12403473 48 48 C51.53184497 47.73838185 54.31964986 47.34017507 57.5 45.75 C61.36266926 44.59119922 63.47752956 46.20423076 67 48 C67 46.02 67 44.04 67 42 C59.08 42 51.16 42 43 42 Z " fill="#151515" transform="translate(73,212)"/>
<path d="M0 0 C4.29 0 8.58 0 13 0 C13.33 11.22 13.66 22.44 14 34 C17.63 30.37 21.26 26.74 25 23 C29.35546875 21.92578125 29.35546875 21.92578125 33.1875 22.3125 C35.12689453 22.46138672 35.12689453 22.46138672 37.10546875 22.61328125 C38.06066406 22.74089844 39.01585937 22.86851562 40 23 C40 26 40 26 38.71484375 27.62573242 C38.12832031 28.19654541 37.54179687 28.7673584 36.9375 29.35546875 C35.99003906 30.28842773 35.99003906 30.28842773 35.0234375 31.24023438 C34.35570312 31.88283203 33.68796875 32.52542969 33 33.1875 C32.33226562 33.84169922 31.66453125 34.49589844 30.9765625 35.16992188 C29.32421559 36.78686135 27.66528399 38.39640491 26 40 C29.76618779 44.51111147 33.66359902 48.77803926 37.875 52.875 C39.60814386 54.56324376 41.31287006 56.26483789 43 58 C43 58.33 43 58.66 43 59 C29.01335642 60.78976008 29.01335642 60.78976008 24.01708984 57.82226562 C20.16739687 54.65813442 17.03736129 50.93276838 14 47 C13.67 50.96 13.34 54.92 13 59 C-16.23663366 61.29306931 -16.23663366 61.29306931 -23 56 C-25.4375 53.75 -25.4375 53.75 -27 52 C-27.33 54.31 -27.66 56.62 -28 59 C-32.29 59 -36.58 59 -41 59 C-41.02465098 54.03377651 -41.04283649 49.06758834 -41.05493164 44.10131836 C-41.0599719 42.41055684 -41.06680405 40.71979971 -41.07543945 39.02905273 C-41.08751857 36.60399293 -41.09323123 34.17899056 -41.09765625 31.75390625 C-41.10281754 30.99348526 -41.10797882 30.23306427 -41.11329651 29.44960022 C-41.11349238 27.6326743 -41.06197277 25.81586873 -41 24 C-40 23 -40 23 -37.53125 22.8671875 C-36.03078125 22.87105469 -36.03078125 22.87105469 -34.5 22.875 C-33.4996875 22.87242187 -32.499375 22.86984375 -31.46875 22.8671875 C-29 23 -29 23 -28 24 C-27.54540142 26.65463121 -27.29756762 29.32189138 -27 32 C-26.29875 31.071875 -25.5975 30.14375 -24.875 29.1875 C-21.43772157 25.09366276 -17.86562331 23.45760572 -12.6875 22.1875 C-9 22 -9 22 0 24 C0 16.08 0 8.16 0 0 Z M-14 36 C-15.67073042 38.76214972 -15.67073042 38.76214972 -16 42 C-14.8705119 45.26296562 -13.90614393 47.28133412 -11.1875 49.4375 C-7.56329022 50.36943966 -4.31220541 49.65610271 -1 48 C-0.67 48.66 -0.34 49.32 0 50 C0 44.39 0 38.78 0 33 C-0.33 33.66 -0.66 34.32 -1 35 C-1.763125 34.67 -2.52625 34.34 -3.3125 34 C-7.895573 32.29467051 -10.20858165 33.08352435 -14 36 Z " fill="#151515" transform="translate(390,210)"/>
<path d="M0 0 C4.29 0 8.58 0 13 0 C13.495 2.475 13.495 2.475 14 5 C14.53625 4.505 15.0725 4.01 15.625 3.5 C18.70110743 1.55719531 20.41889189 1.47775507 24 2 C26.375 3.5625 26.375 3.5625 28 6 C28.56288002 9.94016013 28.60396028 12.05782196 26.4375 15.4375 C23.09493717 17.58016848 20.89504791 17.49573337 17 17 C16.01 16.01 15.02 15.02 14 14 C13.67 28.85 13.34 43.7 13 59 C7.33333333 59 1.66666667 59 -4 59 C-4.99 59.33 -5.98 59.66 -7 60 C-18.35979769 60.61854396 -27.87258217 60.72922857 -37.33203125 53.5859375 C-42.51787116 48.6551389 -46.59307112 41.91787343 -47.3359375 34.765625 C-47.44849375 24.6355627 -45.84220798 17.22734623 -38.90625 9.63671875 C-31.41519875 3.20485302 -23.39899876 0.70737444 -13.71484375 0.765625 C-9.26870164 1.14946461 -5.1848483 2.50413933 -1 4 C-0.67 2.68 -0.34 1.36 0 0 Z M-1 13 C-1.66 14.32 -2.32 15.64 -3 17 C-3.94875 16.67 -4.8975 16.34 -5.875 16 C-11.73611575 14.34747446 -17.53096955 14.16146136 -23.3125 16.125 C-27.08952297 18.76013231 -29.91624735 21.8324947 -32 26 C-32.54035594 30.9252115 -32.54435469 34.86941718 -30.375 39.375 C-26.05934436 44.14493519 -21.82742134 46.80500542 -15.375 47.25 C-10.5775212 47.21433101 -6.4319097 45.72352044 -2 44 C-1.34 45.32 -0.68 46.64 0 48 C0 36.45 0 24.9 0 13 C-0.33 13 -0.66 13 -1 13 Z " fill="#111111" transform="translate(335,210)"/>
<path d="M0 0 C4.29 0 8.58 0 13 0 C13.33 1.65 13.66 3.3 14 5 C14.804375 4.2575 14.804375 4.2575 15.625 3.5 C18.70110743 1.55719531 20.41889189 1.47775507 24 2 C26.375 3.5625 26.375 3.5625 28 6 C28.56288002 9.94016013 28.60396028 12.05782196 26.4375 15.4375 C23.09493717 17.58016848 20.89504791 17.49573337 17 17 C16.01 16.01 15.02 15.02 14 14 C13.67 28.85 13.34 43.7 13 59 C12.67 59 12.34 59 12 59 C12 39.86 12 20.72 12 1 C8.37 1 4.74 1 1 1 C1 2.65 1 4.3 1 6 C0.67 6 0.34 6 0 6 C0 4.02 0 2.04 0 0 Z " fill="#313131" transform="translate(335,210)"/>
<path d="M0 0 C0.33 0 0.66 0 1 0 C1.33 2.64 1.66 5.28 2 8 C2.7425 7.030625 3.485 6.06125 4.25 5.0625 C6.28825331 2.40144707 7.68302639 1.55991648 11 1 C7.49102731 5.18423892 3.91939465 9.19588166 0 13 C0 8.71 0 4.42 0 0 Z " fill="#5A5A5A" transform="translate(361,234)"/>
<path d="M0 0 C-0.5775 0.268125 -1.155 0.53625 -1.75 0.8125 C-4.05747896 1.95053246 -4.05747896 1.95053246 -6.125 3.625 C-8 5 -8 5 -10 5 C-7.62417533 -0.26075462 -5.61350876 -0.1220328 0 0 Z " fill="#5D5D5D" transform="translate(359,212)"/>
<path d="M0 0 C0.99 0.33 1.98 0.66 3 1 C0.69 2.65 -1.62 4.3 -4 6 C-4 5.01 -4 4.02 -4 3 C-2.1875 1.25 -2.1875 1.25 0 0 Z " fill="#545454" transform="translate(301,216)"/>
</svg>
